<svg xmlns="http://www.w3.org/2000/svg" width="512" height="512" fill="none" viewBox="0 0 512 512">
  <path fill="#FA496E" d="M512 428.006H310.188c0-29.926-24.263-54.199-54.188-54.199-29.936 0-54.199 24.273-54.199 54.199H0c0-141.385 114.615-256 256-256s256 114.615 256 256z"/>
  <path fill="#A67EFF" d="M343.832 428.006h-33.646c0-29.926-24.263-54.199-54.188-54.199-29.936 0-54.199 24.273-54.199 54.199h-33.635c0-48.504 39.33-87.824 87.834-87.824 48.504 0 87.834 39.32 87.834 87.824z"/>
  <path fill="#52DBFF" d="M377.457 428.006h-33.625c0-48.504-39.33-87.824-87.834-87.824-48.504 0-87.834 39.32-87.834 87.824h-33.625c0-67.082 54.377-121.459 121.459-121.459s121.459 54.376 121.459 121.459z"/>
  <path fill="#00DCAB" d="M411.092 428.006h-33.635c0-67.082-54.376-121.459-121.459-121.459s-121.459 54.376-121.459 121.459h-33.635c0-85.661 69.433-155.094 155.094-155.094 85.661 0 155.094 69.433 155.094 155.094z"/>
  <path fill="#FF8522" d="M478.363 428.006h-33.635c0-104.229-84.49-188.729-188.729-188.729-104.229 0-188.729 84.501-188.729 188.729H33.633c0-122.807 99.558-222.365 222.365-222.365s222.365 99.558 222.365 222.365z"/>
  <path fill="#FD0" d="M444.727 428.006h-33.635c0-85.661-69.433-155.094-155.094-155.094-85.661 0-155.094 69.433-155.094 155.094H67.268c0-104.229 84.501-188.729 188.729-188.729 104.24-.001 188.73 84.5 188.73 188.729z"/>
  <path fill="#FF8522" d="M256 145.643a7.84 7.84 0 01-5.542-2.295 7.84 7.84 0 01-2.295-5.542V91.831A7.84 7.84 0 01256 83.994a7.838 7.838 0 017.837 7.837v45.976a7.835 7.835 0 01-7.837 7.836z"/>
  <path fill="#52DBFF" d="M374.725 171.749a7.845 7.845 0 01-6.57-3.57 7.844 7.844 0 01-.587-7.454l18.686-42.007c1.761-3.955 6.393-5.734 10.344-3.975a7.834 7.834 0 014.13 4.35 7.833 7.833 0 01-.154 5.996l-18.686 42.007a7.836 7.836 0 01-7.163 4.653z"/>
  <path fill="#FD0" d="M464.563 235.167a7.812 7.812 0 01-5.604-2.358 7.828 7.828 0 01-2.233-5.567 7.823 7.823 0 012.357-5.515l32.874-32.142a7.844 7.844 0 015.566-2.233 7.835 7.835 0 017.185 4.919c.384.955.575 1.977.563 3.006a7.823 7.823 0 01-2.357 5.515l-32.874 32.142a7.814 7.814 0 01-5.477 2.233z"/>
  <path fill="#FA496E" d="M137.275 171.749a7.837 7.837 0 01-7.164-4.654l-18.686-42.007a7.85 7.85 0 01-.155-5.997 7.832 7.832 0 014.131-4.349 7.827 7.827 0 018.581 1.477 7.842 7.842 0 011.763 2.498l18.686 42.007a7.85 7.85 0 01.155 5.997 7.832 7.832 0 01-4.131 4.349 7.815 7.815 0 01-3.18.679z"/>
  <path fill="#A67EFF" d="M47.437 235.167a7.806 7.806 0 01-5.477-2.234L9.087 200.791a7.834 7.834 0 012.399-12.809 7.816 7.816 0 012.992-.63 7.823 7.823 0 015.566 2.233l32.872 32.142a7.833 7.833 0 01.124 11.082 7.804 7.804 0 01-5.603 2.358z"/>
</svg>
