<svg xmlns="http://www.w3.org/2000/svg" width="512" height="512" fill="none" viewBox="0 0 512 512">
  <g clip-path="url(#clip0)">
    <path fill="#EDE6F5" d="M445.684 197.307v122.692c0 13.63-5.529 25.969-14.453 34.904-8.934 8.934-21.263 14.453-34.894 14.453v59.531H115.664v-59.531c-27.25 0-49.347-22.097-49.347-49.357V197.307c0-52.386 21.233-99.802 55.557-134.126S203.614 7.623 256 7.623c104.762 0 189.684 84.922 189.684 189.684z"/>
    <path fill="#CEC1E8" d="M160.168 263.367l11.522 47.188s28.267 25.532 28.267 81.212c0 14.921-5.539 27.179-13.64 37.119h-70.651v-59.531c-27.25 0-49.347-22.097-49.347-49.357V197.307c0-52.386 21.233-99.802 55.557-134.126s81.74-55.557 134.126-55.557c-62.003-.001-135.185 132.133-95.834 255.743z"/>
    <path fill="#EDE6F5" d="M366.993 428.888H145.008v53.252c0 12.281 9.956 22.237 22.237 22.237h177.51c12.281 0 22.237-9.956 22.237-22.237v-53.252h.001z"/>
    <path fill="#CEC1E8" d="M240.168 482.139v-53.252h-95.159v53.252c0 12.281 9.956 22.237 22.237 22.237h95.159c-12.281.001-22.237-9.956-22.237-22.237z"/>
    <path fill="#4E4F75" d="M256 318.814v10.243c0 8.961 7.264 16.224 16.224 16.224 10.707 0 18.478-10.189 15.647-20.514l-14.009-51.091c-4.98-18.165-30.743-18.165-35.725 0l-14.009 51.091c-2.832 10.326 4.94 20.514 15.647 20.514 8.961 0 16.224-7.264 16.224-16.224v-10.243H256zm71.141-102.632c-12.423 0-22.492 10.071-22.492 22.492v36.211c0 19.698 15.969 35.667 35.667 35.667h36.211c12.423 0 22.492-10.071 22.492-22.492 0-39.697-32.18-71.878-71.878-71.878zm-142.28 0c12.423 0 22.492 10.071 22.492 22.492v36.211c0 19.698-15.969 35.667-35.668 35.667h-36.211c-12.423 0-22.492-10.071-22.492-22.492.001-39.697 32.181-71.878 71.879-71.878z"/>
    <path fill="#F7F5F0" d="M237.074 391.767c10.251 0 18.56 8.309 18.56 18.56v18.56h-37.12v-18.56c-.001-10.251 8.309-18.56 18.56-18.56z"/>
    <path fill="#F7F5F0" d="M274.193 391.767c10.251 0 18.56 8.309 18.56 18.56v18.56h-37.121v-18.56c.002-10.251 8.311-18.56 18.561-18.56zm37.121 0c10.251 0 18.56 8.309 18.56 18.56v18.56h-37.121v-18.56c0-10.251 8.31-18.56 18.561-18.56z"/>
    <path fill="#F7F5F0" d="M348.433 391.767c10.251 0 18.56 8.309 18.56 18.56v18.56h-37.121v-18.56c.002-10.251 8.311-18.56 18.561-18.56zm-148.48 0c10.251 0 18.56 8.309 18.56 18.56v18.56h-37.121v-18.56c.002-10.251 8.311-18.56 18.561-18.56z"/>
    <path fill="#F7F5F0" d="M162.833 391.767c10.251 0 18.56 8.309 18.56 18.56v18.56h-37.12v-18.56c0-10.251 8.31-18.56 18.56-18.56zm111.36 74.24c-10.251 0-18.56-8.309-18.56-18.56v-18.56h37.121v18.56c-.001 10.251-8.31 18.56-18.561 18.56z"/>
    <path fill="#F7F5F0" d="M237.074 466.007c-10.251 0-18.56-8.309-18.56-18.56v-18.56h37.12v18.56c0 10.251-8.311 18.56-18.56 18.56zm-37.121 0c-10.251 0-18.56-8.309-18.56-18.56v-18.56h37.12v18.56c0 10.251-8.309 18.56-18.56 18.56z"/>
    <path fill="#F7F5F0" d="M162.833 466.007c-10.251 0-18.56-8.309-18.56-18.56v-18.56h37.121v18.56c0 10.251-8.311 18.56-18.561 18.56zm148.481 0c-10.251 0-18.56-8.309-18.56-18.56v-18.56h37.121v18.56c-.001 10.251-8.312 18.56-18.561 18.56z"/>
    <path fill="#F7F5F0" d="M348.433 466.007c-10.251 0-18.56-8.309-18.56-18.56v-18.56h37.12v18.56c0 10.251-8.309 18.56-18.56 18.56z"/>
    <path fill="#000" d="M256 0c-39.539 0-77.687 11.653-110.322 33.7a7.624 7.624 0 008.536 12.634c30.104-20.338 65.302-31.088 101.787-31.088 100.39 0 182.063 81.673 182.063 182.063v15.144a101.949 101.949 0 00-14.397-18.085c-8.057-8.057-11.365-19.933-8.631-30.996l3.876-15.688a7.62 7.62 0 00-11.34-8.353 7.63 7.63 0 00-3.461 4.696l-3.876 15.688c-4.006 16.215.843 33.624 12.652 45.433 16.236 16.236 25.178 37.822 25.178 60.784V320c0 23.009-18.719 41.728-41.728 41.728l-.041.002c-14.844-.015-28.677-8.007-36.108-20.868a7.614 7.614 0 00-4.63-3.551 7.625 7.625 0 00-8.57 11.179c8.867 15.347 24.416 25.616 41.727 27.97v44.804h-14.097v-10.937c0-14.437-11.746-26.183-26.183-26.183-7.247 0-13.814 2.961-18.56 7.735-4.746-4.774-11.313-7.735-18.56-7.735-7.247 0-13.814 2.961-18.56 7.735-4.746-4.774-11.313-7.735-18.56-7.735-7.247 0-13.814 2.961-18.56 7.735-4.746-4.774-11.313-7.735-18.56-7.735-7.247 0-13.814 2.961-18.56 7.735-4.746-4.774-11.313-7.735-18.56-7.735-7.247 0-13.814 2.961-18.56 7.735-4.746-4.774-11.313-7.735-18.56-7.735-14.437 0-26.183 11.746-26.183 26.183v10.937H123.29V376.46c17.311-2.354 32.859-12.623 41.727-27.97a7.623 7.623 0 00-13.2-7.628c-7.431 12.861-21.264 20.853-36.108 20.868l-.041-.002c-23.009 0-41.728-18.719-41.728-41.728v-54.068c0-22.961 8.941-44.547 25.178-60.784 11.81-11.81 16.658-29.218 12.651-45.434l-3.877-15.688c-1.01-4.087-5.144-6.584-9.229-5.571a7.623 7.623 0 00-5.572 9.229l3.877 15.688c2.733 11.063-.574 22.938-8.631 30.996a102.075 102.075 0 00-14.397 18.085V197.31c0-48.631 18.938-94.353 53.326-128.74a7.624 7.624 0 00-10.78-10.78c-37.275 37.267-57.8 86.816-57.8 139.52V320c0 28.831 21.528 52.729 49.351 56.467v52.421a7.624 7.624 0 007.623 7.623h20.985v10.937c0 2.116.259 4.171.735 6.143v28.548c0 16.465 13.395 29.86 29.86 29.86h128.4a7.62 7.62 0 005.39-2.233 7.62 7.62 0 000-10.78 7.62 7.62 0 00-5.39-2.233H167.246c-8.058 0-14.614-6.556-14.614-14.614V471.56a26.03 26.03 0 0010.202 2.07c7.247 0 13.814-2.961 18.56-7.735 4.746 4.774 11.313 7.735 18.56 7.735 7.247 0 13.814-2.961 18.56-7.735 4.746 4.774 11.313 7.735 18.56 7.735 7.247 0 13.814-2.961 18.56-7.735 4.746 4.774 11.313 7.735 18.56 7.735 7.247 0 13.814-2.961 18.56-7.735 4.746 4.774 11.313 7.735 18.56 7.735 7.247 0 13.814-2.961 18.56-7.735 4.746 4.774 11.313 7.735 18.56 7.735 3.903 0 7.606-.865 10.937-2.403v10.911c0 8.058-6.556 14.614-14.614 14.614h-23.703a7.62 7.62 0 00-5.39 2.233 7.62 7.62 0 000 10.78 7.62 7.62 0 005.39 2.233h23.703c16.465 0 29.86-13.395 29.86-29.86V436.51h21.72a7.62 7.62 0 005.39-2.233 7.62 7.62 0 002.233-5.39v-52.421c27.824-3.737 49.351-27.635 49.351-56.467V197.31C453.311 88.513 364.798 0 256 0zm92.433 399.39c6.03 0 10.937 4.906 10.937 10.937v10.937h-21.874v-10.937c.001-6.03 4.907-10.937 10.937-10.937zm-37.119 0c6.03 0 10.937 4.906 10.937 10.937v10.937h-21.874v-10.937c-.001-6.03 4.906-10.937 10.937-10.937zm-37.121 0c6.03 0 10.937 4.906 10.937 10.937v10.937h-21.874v-10.937c.001-6.03 4.907-10.937 10.937-10.937zm-37.119 0c6.03 0 10.937 4.906 10.937 10.937v10.937h-21.874v-10.937c-.001-6.03 4.906-10.937 10.937-10.937zm-37.121 0c6.03 0 10.937 4.906 10.937 10.937v10.937h-21.874v-10.937c.001-6.03 4.907-10.937 10.937-10.937zm-48.057 10.937c0-6.03 4.906-10.937 10.937-10.937 6.03 0 10.937 4.906 10.937 10.937v10.937h-21.874v-10.937zm10.938 48.057c-4.651 0-8.623-2.924-10.202-7.027V436.51h21.138v10.937c0 6.031-4.906 10.937-10.936 10.937zm37.119 0c-6.03 0-10.937-4.906-10.937-10.937V436.51h21.874v10.937c0 6.031-4.906 10.937-10.937 10.937zm37.121 0c-6.03 0-10.937-4.906-10.937-10.937V436.51h21.874v10.937c-.001 6.031-4.907 10.937-10.937 10.937zm37.119 0c-6.03 0-10.937-4.906-10.937-10.937V436.51h21.874v10.937c0 6.031-4.906 10.937-10.937 10.937zm37.121 0c-6.03 0-10.937-4.906-10.937-10.937V436.51h21.874v10.937c-.001 6.031-4.907 10.937-10.937 10.937zm37.119 0c-6.03 0-10.937-4.906-10.937-10.937V436.51h21.874v10.937c0 6.031-4.906 10.937-10.937 10.937z"/>
    <path fill="#000" d="M239.776 352.906c6.26 0 11.965-2.425 16.224-6.385 4.259 3.96 9.964 6.385 16.224 6.385 7.501 0 14.413-3.421 18.962-9.386 4.549-5.965 6.02-13.535 4.037-20.768l-14.009-51.091C278.06 260.158 267.927 252.43 256 252.43c-11.927 0-22.06 7.729-25.214 19.231l-14.009 51.091c-1.984 7.235-.512 14.804 4.037 20.768 4.55 5.964 11.461 9.386 18.962 9.386zm-8.294-26.123l14.009-51.091c1.621-5.91 6.492-8.016 10.511-8.016 4.019 0 8.89 2.106 10.511 8.016l14.009 51.091a8.528 8.528 0 01-1.457 7.491 8.542 8.542 0 01-6.839 3.386c-4.743 0-8.601-3.858-8.601-8.601v-10.243a7.62 7.62 0 00-2.233-5.39 7.62 7.62 0 00-10.78 0 7.62 7.62 0 00-2.233 5.39v10.243c0 4.743-3.858 8.601-8.601 8.601a8.529 8.529 0 01-6.839-3.386 8.528 8.528 0 01-1.457-7.491zm145.045-8.606c16.605 0 30.115-13.51 30.115-30.115 0-43.837-35.664-79.501-79.501-79.501-16.606 0-30.115 13.51-30.115 30.115v36.211c0 23.871 19.42 43.29 43.291 43.29h36.21zm-64.255-43.291v-36.211c0-8.198 6.671-14.869 14.869-14.869 35.43 0 64.255 28.825 64.255 64.256 0 8.198-6.671 14.869-14.869 14.869h-36.211c-15.464-.001-28.044-12.582-28.044-28.045zm-176.797 43.291h36.211c23.871 0 43.291-19.42 43.291-43.29v-36.212c0-16.605-13.51-30.115-30.115-30.115-43.837 0-79.501 35.664-79.501 79.502-.001 16.604 13.508 30.115 30.114 30.115zm49.386-94.371c8.199 0 14.869 6.671 14.869 14.869v36.211c0 15.464-12.58 28.044-28.045 28.044h-36.211c-8.198 0-14.869-6.671-14.869-14.869.001-35.431 28.825-64.255 64.256-64.255z"/>
  </g>
  <defs>
    <clipPath id="clip0">
      <path fill="#fff" d="M0 0h511.999v511.999H0z"/>
    </clipPath>
  </defs>
</svg>
