<svg xmlns="http://www.w3.org/2000/svg" width="512" height="512" fill="none" viewBox="0 0 512 512">
  <path fill="#FF5E95" d="M512 181.867c0 43.293-16.133 82.942-50.773 124.735C430.23 344 385.695 381.957 334.113 425.91c-17.625 15.016-37.597 32.04-58.32 50.172a30.05 30.05 0 01-19.613 7.43H256c-7.29 0-14.316-2.64-19.793-7.438-20.684-18.086-40.625-35.09-58.219-50.086l-.09-.066C126.324 381.965 81.77 344 50.781 306.602 16.133 264.809 0 225.16 0 181.867c0-42.066 14.426-80.883 40.617-109.293C67.125 43.824 103.492 28 143.031 28c29.559 0 56.617 9.336 80.45 27.762 12.027 9.304 22.921 20.68 32.519 33.965l.18-.239c9.558-13.183 20.394-24.48 32.347-33.726C312.352 37.336 339.422 28 368.97 28c39.547 0 75.914 15.824 102.414 44.574C497.574 100.984 512 139.79 512 181.867z"/>
  <path fill="#FF3980" d="M512 181.867c0 43.293-16.133 82.942-50.773 124.735C430.23 344 385.695 381.957 334.113 425.91c-17.625 15.016-37.597 32.04-58.32 50.172a30.05 30.05 0 01-19.613 7.43V89.488c9.558-13.183 20.394-24.48 32.347-33.726C312.352 37.336 339.422 28 368.97 28c39.547 0 75.914 15.824 102.414 44.574C497.574 100.984 512 139.79 512 181.867z"/>
</svg>
