<svg xmlns="http://www.w3.org/2000/svg" width="512" height="512" fill="none" viewBox="0 0 512 512">
  <path fill="#FBBECF" d="M299.785 15.453a15.899 15.899 0 00-12.04 5.516l-8.566 9.936-24.354 190.626h15.452l31.288-75.535a185.426 185.426 0 0014.115-70.962V31.348c0-8.779-7.116-15.895-15.895-15.895z"/>
  <path fill="#FBCFDB" d="M284.775 75.033V46.801c0-8.78-2.793-15.896-5.596-15.896l-7.52-20.053a16.723 16.723 0 00-25.184-7.873 16.729 16.729 0 00-6.134 7.873l-7.52 20.053-8.567-9.936a15.892 15.892 0 00-12.039-5.516c-8.779 0-15.895 7.116-15.895 15.895v43.685a185.43 185.43 0 0014.115 70.962l31.288 75.535h28.555l9.991-75.535c2.975-22.497 4.506-46.61 4.506-70.962z"/>
  <path fill="#FBBECF" d="M116.868 54.947a15.896 15.896 0 00-4.612 12.413l.968 13.084 117.572 152.013 10.927-10.927-31.288-75.535a185.443 185.443 0 00-40.197-60.158l-30.89-30.89c-6.207-6.208-16.272-6.208-22.48 0z"/>
  <path fill="#FBCFDB" d="M148.384 107.69l-19.963-19.963c-6.208-6.208-13.215-9.265-15.197-7.282L93.726 71.58A16.725 16.725 0 0071.58 93.727l8.863 19.497-13.084-.968a15.89 15.89 0 00-12.413 4.612c-6.208 6.208-6.208 16.273 0 22.479l30.89 30.89a185.445 185.445 0 0060.158 40.197l75.535 31.288 20.192-20.192-46.347-60.476c-13.803-18.011-29.77-36.145-46.99-53.364z"/>
  <path fill="#FBBECF" d="M15.453 212.215c0 4.625 2.014 9.019 5.516 12.04l9.936 8.566 190.626 24.354v-15.452l-75.535-31.288a185.426 185.426 0 00-70.962-14.115H31.348c-8.779 0-15.895 7.116-15.895 15.895z"/>
  <path fill="#FBCFDB" d="M75.033 227.225H46.801c-8.78 0-15.896 2.793-15.896 5.596l-20.053 7.52a16.723 16.723 0 00-7.873 25.184 16.723 16.723 0 007.873 6.134l20.053 7.52-9.936 8.567a15.892 15.892 0 00-5.516 12.039c0 8.779 7.116 15.895 15.895 15.895h43.685a185.43 185.43 0 0070.962-14.115l75.535-31.288v-28.555l-75.535-9.991c-22.497-2.975-46.61-4.506-70.962-4.506z"/>
  <path fill="#FBBECF" d="M54.947 395.132a15.896 15.896 0 0012.413 4.612l13.084-.968 152.013-117.572-10.927-10.927-75.535 31.288a185.443 185.443 0 00-60.158 40.197l-30.89 30.89c-6.208 6.207-6.208 16.272 0 22.48z"/>
  <path fill="#FBCFDB" d="M107.69 363.616l-19.963 19.963c-6.208 6.208-9.265 13.215-7.282 15.197l-8.863 19.497a16.724 16.724 0 0022.146 22.146l19.497-8.863-.968 13.084a15.886 15.886 0 004.612 12.413c6.208 6.208 16.273 6.208 22.479 0l30.89-30.89a185.44 185.44 0 0040.197-60.158l31.288-75.535-20.192-20.192-60.476 46.347c-18.012 13.804-36.146 29.771-53.365 46.991z"/>
  <path fill="#FBBECF" d="M212.215 496.547c4.625 0 9.02-2.014 12.04-5.516l8.566-9.936 24.354-190.626h-15.452l-31.288 75.535a185.425 185.425 0 00-14.115 70.962v43.685c0 8.78 7.116 15.896 15.895 15.896z"/>
  <path fill="#FBCFDB" d="M227.225 436.967v28.232c0 8.779 2.793 15.896 5.596 15.896l7.52 20.053a16.725 16.725 0 0031.318 0l7.52-20.053 8.567 9.936a15.888 15.888 0 0012.039 5.516c8.779 0 15.895-7.116 15.895-15.895v-43.685c0-24.352-4.796-48.464-14.115-70.962l-31.288-75.535h-28.555l-9.991 75.535c-2.975 22.497-4.506 46.61-4.506 70.962z"/>
  <path fill="#FBBECF" d="M395.132 457.053a15.897 15.897 0 004.612-12.413l-.968-13.084-117.572-152.013-10.927 10.927 31.288 75.535a185.44 185.44 0 0040.197 60.158l30.89 30.89c6.207 6.208 16.272 6.208 22.48 0z"/>
  <path fill="#FBCFDB" d="M363.616 404.31l19.963 19.963c6.208 6.208 13.215 9.265 15.197 7.282l19.497 8.863a16.732 16.732 0 0018.746-3.4 16.733 16.733 0 003.4-18.746l-8.863-19.497 13.084.968a15.893 15.893 0 0012.413-4.612c6.208-6.208 6.208-16.273 0-22.479l-30.89-30.89a185.44 185.44 0 00-60.158-40.197l-75.535-31.288-20.192 20.192 46.347 60.476c13.804 18.012 29.771 36.146 46.991 53.365z"/>
  <path fill="#FBBECF" d="M496.547 299.785a15.9 15.9 0 00-5.516-12.04l-9.936-8.566-190.626-24.354v15.452l75.535 31.288a185.425 185.425 0 0070.962 14.115h43.685c8.78 0 15.896-7.116 15.896-15.895z"/>
  <path fill="#FBCFDB" d="M436.967 284.775h28.232c8.779 0 15.896-2.793 15.896-5.596l20.053-7.52a16.725 16.725 0 000-31.318l-20.053-7.52 9.936-8.567a15.888 15.888 0 005.516-12.039c0-8.779-7.116-15.895-15.895-15.895h-43.685a185.425 185.425 0 00-70.962 14.115l-75.535 31.288v28.555l75.535 9.991c22.497 2.975 46.61 4.506 70.962 4.506z"/>
  <path fill="#FBBECF" d="M457.053 116.868a15.897 15.897 0 00-12.413-4.612l-13.084.968-152.013 117.572 10.927 10.927 75.535-31.288a185.44 185.44 0 0060.158-40.197l30.89-30.89c6.208-6.207 6.208-16.272 0-22.48z"/>
  <path fill="#FBCFDB" d="M404.31 148.384l19.963-19.963c6.208-6.208 9.265-13.215 7.282-15.197l8.863-19.497a16.73 16.73 0 00-12.242-23.376 16.724 16.724 0 00-9.904 1.23l-19.497 8.863.968-13.084a15.89 15.89 0 00-4.612-12.413c-6.208-6.208-16.273-6.208-22.479 0l-30.89 30.89a185.443 185.443 0 00-40.197 60.158l-31.288 75.535 20.192 20.192 60.476-46.347c18.012-13.804 36.146-29.771 53.365-46.991z"/>
  <path fill="#FAEC8E" d="M256 296.383c22.303 0 40.383-18.08 40.383-40.383 0-22.303-18.08-40.383-40.383-40.383-22.303 0-40.383 18.08-40.383 40.383 0 22.303 18.08 40.383 40.383 40.383z"/>
  <path fill="#FBF6C3" d="M256 231.07c8.534 0 15.453-6.919 15.453-15.453 0-8.534-6.919-15.453-15.453-15.453-8.534 0-15.453 6.919-15.453 15.453 0 8.534 6.919 15.453 15.453 15.453z"/>
  <path fill="#FBF9E9" d="M227.444 242.897c8.535 0 15.453-6.918 15.453-15.453 0-8.534-6.918-15.452-15.453-15.452-8.534 0-15.452 6.918-15.452 15.452 0 8.535 6.918 15.453 15.452 15.453z"/>
  <path fill="#FBF6C3" d="M215.617 271.453c8.534 0 15.453-6.919 15.453-15.453 0-8.534-6.919-15.453-15.453-15.453-8.534 0-15.453 6.919-15.453 15.453 0 8.534 6.919 15.453 15.453 15.453z"/>
  <path fill="#FBF9E9" d="M227.444 300.008c8.535 0 15.453-6.918 15.453-15.452 0-8.535-6.918-15.453-15.453-15.453-8.534 0-15.452 6.918-15.452 15.453 0 8.534 6.918 15.452 15.452 15.452z"/>
  <path fill="#FBF6C3" d="M256 311.836c8.534 0 15.453-6.919 15.453-15.453 0-8.534-6.919-15.453-15.453-15.453-8.534 0-15.453 6.919-15.453 15.453 0 8.534 6.919 15.453 15.453 15.453z"/>
  <path fill="#FBF9E9" d="M284.555 300.008c8.534 0 15.452-6.918 15.452-15.452 0-8.535-6.918-15.453-15.452-15.453-8.535 0-15.453 6.918-15.453 15.453 0 8.534 6.918 15.452 15.453 15.452z"/>
  <path fill="#FBF6C3" d="M296.383 271.453c8.534 0 15.453-6.919 15.453-15.453 0-8.534-6.919-15.453-15.453-15.453-8.534 0-15.453 6.919-15.453 15.453 0 8.534 6.919 15.453 15.453 15.453z"/>
  <path fill="#FBF9E9" d="M284.555 242.897c8.534 0 15.452-6.918 15.452-15.453 0-8.534-6.918-15.452-15.452-15.452-8.535 0-15.453 6.918-15.453 15.452 0 8.535 6.918 15.453 15.453 15.453z"/>
</svg>
