<svg xmlns="http://www.w3.org/2000/svg" width="512" height="512" fill="none" viewBox="0 0 512 512">
  <path fill="#C3DAFD" d="M66 90h180v90H66V90z"/>
  <path fill="#A1B8D8" d="M156 90h90v90h-90V90z"/>
  <path fill="#E4F3FF" d="M6 150h300v362H6V150z"/>
  <path fill="#E4F3FF" d="M156 150h150v362H156V150z"/>
  <path fill="#457899" d="M36 0h240v120H36V0z"/>
  <path fill="#365C75" d="M156 0h120v120H156V0z"/>
  <path fill="#FF5C5C" d="M6 216h300v230H6V216z"/>
  <path fill="#FF3838" d="M156 216h150v230H156V216z"/>
  <path fill="#274254" d="M186 0h30v59.594h-30V0z"/>
  <path fill="#365C75" d="M96 0h30v59.594H96V0z"/>
  <path fill="#E4F3FF" d="M211 316h-40v-40h-30v40h-40v30h40v40h30v-40h40v-30z"/>
  <path fill="#C3DAFD" d="M171 316v-40h-15v110h15v-40h40v-30h-40z"/>
  <path fill="#E4F3FF" d="M451 490H331c-30.327 0-55-24.673-55-55s24.673-55 55-55h120c30.327 0 55 24.673 55 55s-24.673 55-55 55z"/>
  <path fill="#C3DAFD" d="M331 490h120c30.327 0 55-24.673 55-55H276c0 30.327 24.673 55 55 55z"/>
  <path fill="#FF5C5C" d="M451 380h-60v110h60c30.327 0 55-24.673 55-55s-24.673-55-55-55z"/>
  <path fill="#FF3838" d="M391 490h60c30.327 0 55-24.673 55-55H391v55z"/>
  <path fill="#E4F3FF" d="M454.744 256.891l-84.852 84.854c-21.445 21.444-56.337 21.444-77.782 0-21.444-21.444-21.444-56.338 0-77.781l84.853-84.853c21.445-21.444 56.337-21.444 77.782 0 21.443 21.444 21.443 56.336-.001 77.78z"/>
  <path fill="#C3DAFD" d="M369.892 341.744l84.852-84.854c21.444-21.443 21.444-56.336 0-77.781L292.109 341.744c21.445 21.445 56.338 21.445 77.783 0z"/>
  <path fill="#5CA2FA" d="M376.962 179.109l-42.426 42.427 77.781 77.781 42.427-42.427c21.444-21.443 21.444-56.336 0-77.781-21.444-21.444-56.337-21.444-77.782 0z"/>
  <path fill="#3D6DEF" d="M412.317 299.317l42.427-42.427c21.444-21.443 21.444-56.336 0-77.781l-81.317 81.317 38.89 38.891z"/>
</svg>
