<svg xmlns="http://www.w3.org/2000/svg" width="474" height="474" fill="none" viewBox="0 0 474 474">
  <g clip-path="url(#clip0)">
    <path fill="#FFC10E" d="M236.966 473.932c130.873 0 236.966-106.093 236.966-236.966S367.839 0 236.966 0 0 106.093 0 236.966s106.093 236.966 236.966 236.966z"/>
    <path fill="#333" d="M383.164 237.123c-1.332 80.699-65.514 144.873-146.213 146.206-80.702 1.332-144.907-67.52-146.206-146.206-.198-12.052-18.907-12.071-18.709 0 1.5 90.921 73.993 163.414 164.914 164.914 90.929 1.5 163.455-76.25 164.922-164.914.199-12.071-18.51-12.052-18.708 0zM164.937 192.443c20.554 0 37.216-16.662 37.216-37.216 0-20.554-16.662-37.216-37.216-37.216-20.554 0-37.216 16.662-37.216 37.216 0 20.554 16.662 37.216 37.216 37.216zM305.664 192.443c20.554 0 37.216-16.662 37.216-37.216 0-20.554-16.662-37.216-37.216-37.216-20.554 0-37.216 16.662-37.216 37.216 0 20.554 16.662 37.216 37.216 37.216z"/>
  </g>
  <defs>
    <clipPath id="clip0">
      <path fill="#fff" d="M0 0h473.931v473.931H0z"/>
    </clipPath>
  </defs>
</svg>
