<svg xmlns="http://www.w3.org/2000/svg" width="474" height="474" fill="none" viewBox="0 0 474 474">
  <g clip-path="url(#clip0)">
    <path fill="#FFC10E" d="M236.967 473.934c130.873 0 236.967-106.094 236.967-236.967C473.934 106.094 367.84 0 236.967 0 106.094 0 0 106.094 0 236.967 0 367.84 106.094 473.934 236.967 473.934z"/>
    <path fill="#333" d="M357.318 354.8c-66.084-68.291-174.663-68.288-240.743.007-8.389 8.666 4.827 21.912 13.227 13.227 59.139-61.118 155.146-61.122 214.288-.007 8.401 8.681 21.621-4.561 13.228-13.227zM164.938 229.881c20.554 0 37.216-16.662 37.216-37.216 0-20.554-16.662-37.216-37.216-37.216-20.554 0-37.216 16.662-37.216 37.216 0 20.554 16.662 37.216 37.216 37.216zM305.667 229.881c20.554 0 37.216-16.662 37.216-37.216 0-20.554-16.662-37.216-37.216-37.216-20.554 0-37.216 16.662-37.216 37.216 0 20.554 16.662 37.216 37.216 37.216zM316.364 68.389c-28.677 28.673-57.35 57.35-86.024 86.024h13.227c-28.673-28.677-57.347-57.35-86.02-86.024-8.539-8.539-21.766 4.688-13.227 13.227 28.673 28.677 57.347 57.35 86.02 86.024 3.603 3.603 9.624 3.603 13.227 0 28.677-28.673 57.35-57.35 86.024-86.024 8.539-8.539-4.692-21.77-13.227-13.227z"/>
  </g>
  <defs>
    <clipPath id="clip0">
      <path fill="#fff" d="M0 0h473.935v473.935H0z"/>
    </clipPath>
  </defs>
</svg>
