<svg xmlns="http://www.w3.org/2000/svg" width="418" height="506" fill="none" viewBox="0 0 418 506">
  <g class="hoodie-long-back">
    <path fill="#CCC" d="M99.852 449.994c29.918 12.107 68.176 11.958 108.767 11.775.24.008.48-.007.717-.043.234.036.47.05.707.043 40.59.183 78.85.331 108.767-11.775-.743 12.376-1.054 27.613-1.137 31.717l-.009.439c-4.684.851-55.373 9.933-107.951 8.738a3.982 3.982 0 00-.289-.007 4.113 4.113 0 00-.471.007c-52.578 1.196-103.263-7.887-107.947-8.738l-.007-.33c-.08-3.935-.395-19.337-1.147-31.826z" class="layer bottom"/>
    <g fill="#CCC" class="layer cuffs">
      <path d="M411.599 477.543c.208 4.935.642 15.613.781 24.783-11.569 3.592-31.055 4.62-43.125 2.096.149-1.994.307-3.549.43-7.604.092-3.012.12-6.216-.023-9.131-.118-2.422-.276-4.551-.828-6.547 13.146-.324 30.832-2.212 42.765-3.597zM7.073 477.545c11.935 1.385 29.62 3.271 42.763 3.595-.552 1.996-.71 4.125-.828 6.547-.142 2.915-.12 6.119-.03 9.131.123 4.055.288 5.61.436 7.604-12.067 2.524-31.554 1.494-43.125-2.096.14-9.169.575-19.845.784-24.781z"/>
    </g>
    <path fill="#CCC" d="M293.5 54.5c.545-2 .923-4.31 2.822-3.647 9.221 4.088 18.722 8.431 26.332 12.192 3.938 1.946 7.379 3.738 9.959 5.226 2.496 1.44 4.244 2.805 4.397 2.936.108.121.224.236.347.343a4 4 0 00.762.576c11.557 7.954 23.779 26.061 34.607 50.809 10.921 24.958 20.623 56.573 28.205 91.174 14.933 68.142 21.471 147.775 13.797 211.519 0 13.366-2.663 30.366-4.163 45.366-5.771.579-36.033 3.573-42 4-1.5-16-3.546-29.5-3.546-45.521-1.862-39.459-2.078-84.713-5.574-124.509-3.579-40.745-10.076-75.681-27.56-92.973a4.001 4.001 0 00-2.477-1.531 3.998 3.998 0 00-4.715 4.639c-.245 49.729-2.413 122.954-2.01 180.624 0 19.771 0 13.271-4.118 45.271-6.5 12.5-104.079 17.806-109.5 15-107.5-2-108.752-12.009-109-12-4.086-35-4.26-23.5-4.086-48.271.405-57.915-1.778-131.551-2.008-181.29a3.997 3.997 0 00-2.517-3.753 4 4 0 00-4.701 1.339c-17.464 17.301-23.95 52.221-27.528 92.945-3.495 39.796-3.718 85.05-5.58 124.509-.52 11.021-1.08 22.021-4.58 44.021-5.858-.392-28.408-3.013-38.455-4.12l-3.545-.38c-1.5-18.5-4-24.634-4-43-7.674-63.743-.258-143.743 14.674-211.885 7.582-34.601 17.286-66.216 28.207-91.174 10.92-24.958 23.249-43.177 34.892-51.023l.012-.008.027-.019c.273-.184.521-.401.74-.646.097-.088 1.899-1.504 4.434-2.967 2.577-1.487 6.01-3.275 9.943-5.219 7.628-3.77 17.158-8.12 26.403-12.218C127.518 49.062 128.269 57.5 130 65c1.5 6.5 4 13 8 23.5l8 19.5c8.5 6 40.785 23.386 59.5 23.5h8l5.5-1 26-6c4.5-2 20-5 29.5-16.5l9-19.5c4.5-13 4.5-10.5 7.43-21.5 1.07-5.5 1.07-7 2.57-12.5z" class="layer main"/>
    <path fill="#CCC" d="M248.039 1.732C236.167.234 221.965.42 209.705 0c-12.277.423-26.513.231-38.408 1.732-11.928 1.505-20.792 4.88-23.748 10.355l-7.574 14.033-3.344 2.4a22.064 22.064 0 00-5.344 3.64c-2.5 2.291-4.406 5.89-5.287 10.498 0 0 15.049 54.836 23.897 61.836 8.848 7 39.5 24.5 59.5 24s53.618-12.5 62.5-24c8.882-11.5 21.437-61.838 21.437-61.838-.882-4.608-2.785-8.204-5.286-10.496a22.06 22.06 0 00-5.345-3.639l-3.278-2.279-.074-.12-7.572-14.034c-2.956-5.475-11.813-8.85-23.74-10.356z" class="layer hood"/>
  </g>
</svg>
