<svg xmlns="http://www.w3.org/2000/svg" width="434" height="479" fill="none" viewBox="0 0 434 479">
  <g class="hoodie">
    <path fill="#CCC" d="M255.142 9.738c-11.872-1.498-26.074-1.312-38.334-1.732-12.277.423-26.513.231-38.408 1.732-11.928 1.505-20.792 4.88-23.748 10.355l-7.574 14.033a3.183 3.183 0 01-.069.126c7.132 11.283 17.305 12.521 17.305 12.521a1.995 1.995 0 011.727 1.461 2.01 2.01 0 01-.207 1.547 2.003 2.003 0 01-2.051.955s-12.007-1.744-20.049-14.21a22.058 22.058 0 00-5.344 3.64c-2.5 2.291-4.406 5.89-5.287 10.498 5.093-.377 9.954.303 14.057 2.191 5.252 2.417 12.384 5.968 23.377 8.982l3.878.996c6.942 1.675 15.252 3.108 25.407 3.952-14.72-9.476-24.491-19.383-29.721-27.918-3.429-5.597-5.187-10.606-4.287-15.324.45-2.36 1.834-4.672 3.933-6.026 2.1-1.354 4.618-1.747 7.213-1.54a4.003 4.003 0 013.81 4.313 4.015 4.015 0 01-1.446 2.772 4.001 4.001 0 01-2.998.885c-1.382-.11-2.031.159-2.245.297-.213.138-.291.154-.414.797-.245 1.284.407 4.997 3.256 9.648.909 1.483 2.038 3.069 3.348 4.719 6.563-.381 22.572-1.227 36.275-1.235a2.01 2.01 0 01.225-.002c.064-.002.127-.001.191.002 13.703.008 29.726.853 36.301 1.235 1.309-1.65 2.439-3.238 3.348-4.72 2.849-4.652 3.499-8.363 3.253-9.647-.122-.643-.198-.661-.412-.8-.213-.137-.862-.404-2.244-.294a3.998 3.998 0 01-4.42-3.663 4.005 4.005 0 012.252-3.918 4.007 4.007 0 011.541-.391c2.596-.207 5.112.188 7.211 1.542 2.1 1.355 3.486 3.665 3.936 6.024.9 4.718-.868 9.73-4.297 15.326-5.23 8.536-14.993 18.443-29.713 27.918 10.156-.844 18.467-2.276 25.408-3.951l3.877-.998c10.989-3.014 18.12-6.565 23.371-8.98 4.104-1.889 8.968-2.571 14.063-2.194-.882-4.608-2.785-8.204-5.285-10.496a22.08 22.08 0 00-5.346-3.639c-8.043 12.465-20.057 14.21-20.057 14.21a1.997 1.997 0 01-2.061-.954 1.998 1.998 0 011.538-3.01s10.172-1.237 17.302-12.525l-.074-.12-7.572-14.034c-2.956-5.475-11.813-8.85-23.74-10.356z" class="layer hood"/>
    <path fill="#CCC" d="M303.757 58.86c-1.899-.664-3.675-.962-5.393-.96-2.937.005-5.707.876-8.646 2.228-5.034 2.316-12.756 6.409-25.135 9.847l-3.875 1.018c-10.959 2.693-25.198 4.78-43.916 4.894l-.029-.002-.024.002c-18.714-.114-32.949-2.2-43.908-4.892l-3.875-1.018c-12.382-3.439-20.105-7.533-25.14-9.85-4.64-2.134-8.864-3.059-13.984-1.286-9.245 4.097-18.775 8.448-26.403 12.218-3.933 1.945-7.366 3.732-9.943 5.219-2.535 1.463-4.337 2.879-4.434 2.967-.219.245-.468.462-.74.646l-.027.02-.012.007c-11.644 7.846-23.972 26.065-34.892 51.023-10.92 24.958-20.625 56.573-28.207 91.174C10.24 290.257 3.695 369.89 11.369 433.634c12.654 1.488 36.493 3.951 49.71 3.845 1.863-39.459 2.085-84.713 5.58-124.509 3.578-40.724 10.065-75.644 27.528-92.945a4.003 4.003 0 014.701-1.339 4.004 4.004 0 012.518 3.753c.229 49.739 2.413 123.375 2.008 181.29 28.292 14.247 68.497 14.787 112.603 14.588a4.09 4.09 0 01.742.041c.25-.037.503-.051.756-.041 44.106.199 84.311-.341 112.603-14.588-.403-57.67 1.765-130.895 2.01-180.624a3.997 3.997 0 011.13-3.567 4.008 4.008 0 013.585-1.072 3.999 3.999 0 012.476 1.531c17.485 17.292 23.982 52.228 27.561 92.973 3.495 39.796 3.712 85.05 5.574 124.509 13.215.107 37.051-2.356 49.709-3.845 7.674-63.744 1.135-143.377-13.797-211.519-7.582-34.601-17.284-66.216-28.205-91.174-10.828-24.748-23.05-42.855-34.607-50.809a4 4 0 01-.762-.576 4 4 0 01-.348-.343c-.152-.131-1.901-1.496-4.396-2.936-2.58-1.488-6.021-3.28-9.959-5.226-7.61-3.76-17.111-8.104-26.332-12.192z" class="layer main"/>
    <g fill="#CCC" class="layer bottom">
      <path d="M107.287 414.536c29.917 12.107 68.176 11.958 108.767 11.775.24.008.48-.007.717-.043.234.036.47.05.707.043 40.59.183 78.85.332 108.767-11.775-.744 12.377-1.054 27.613-1.137 31.717l-.009.439c-4.684.851-55.374 9.933-107.951 8.739a3.999 3.999 0 00-.289-.008 3.897 3.897 0 00-.471.008c-52.579 1.195-103.263-7.888-107.947-8.739l-.007-.33c-.08-3.935-.396-19.337-1.147-31.826z"/>
      <path d="M107.287 414.536c29.917 12.107 68.176 11.958 108.767 11.775.24.008.48-.007.717-.043.234.036.47.05.707.043 40.59.183 78.85.332 108.767-11.775-.744 12.377-1.054 27.613-1.137 31.717l-.009.439c-4.684.851-55.374 9.933-107.951 8.739a3.999 3.999 0 00-.289-.008 3.897 3.897 0 00-.471.008c-52.579 1.195-103.263-7.888-107.947-8.739l-.007-.33c-.08-3.935-.396-19.337-1.147-31.826z"/>
    </g>
    <g fill="#CCC" class="layer cuffs">
      <path d="M419.034 442.085c.208 4.935.642 15.613.781 24.783-11.569 3.592-31.055 4.621-43.125 2.096.148-1.994.307-3.549.43-7.604.091-3.012.119-6.216-.023-9.131-.118-2.422-.276-4.551-.828-6.546 13.145-.325 30.831-2.213 42.765-3.598zM14.508 442.087c11.934 1.385 29.62 3.271 42.763 3.596-.552 1.995-.71 4.124-.828 6.546-.142 2.915-.12 6.119-.03 9.131.123 4.056.288 5.61.436 7.604-12.067 2.524-31.554 1.494-43.125-2.096.14-9.169.575-19.845.784-24.781z"/>
    </g>
    <path fill="#AAA" d="M158.718 298.361h116.096c.809 17.834 5.974 29.448 11.242 36.453 4.488 5.967 8.344 8.234 9.855 9.049l-3.521 51.828c-2.549.389-44.79 6.809-75.561 5.839h-.125c-30.766.97-72.994-5.448-75.554-5.839l-3.522-51.828c1.516-.818 5.364-3.087 9.848-9.049 5.268-7.005 10.432-18.619 11.242-36.453z" class="layer pocket"/>
    <g fill="#AAA" class="layer laces" clip-rule="evenodd">
      <path d="M174.704 62.596c.031-.158.067-.329.099-.488 3.585-.308 6.437-3.36 6.437-7.038 0-3.881-3.173-7.07-7.034-7.07-3.861 0-7.031 3.189-7.031 7.07 0 2.679 1.511 5.027 3.717 6.224l-.062.303-1.578 8.17c-5.92 31.885-6.361 52.193 3.201 72.994a1.999 1.999 0 001.902 1.197 2 2 0 001.922-2.119 2.025 2.025 0 00-.198-.768c-9.101-19.797-8.771-38.959-2.957-70.282l1.582-8.193zm2.541-7.526c0-1.71-1.337-3.052-3.039-3.052-1.702 0-3.037 1.341-3.037 3.052 0 .704.236 1.338.621 1.85.157-.764.301-1.49.464-2.265.088-.455.33-.865.685-1.161a1.99 1.99 0 013.22 1.094c.068.295.068.601.002.896-.161.768-.302 1.484-.459 2.239a3.01 3.01 0 001.543-2.653zM263.173 61.595c-.02-.098-.043-.202-.062-.3 2.206-1.198 3.717-3.546 3.717-6.225 0-3.88-3.17-7.07-7.031-7.07-3.861 0-7.034 3.19-7.034 7.07 0 3.68 2.852 6.73 6.439 7.038l.099.489 1.58 8.19c5.814 31.324 6.144 50.486-2.957 70.284a2.028 2.028 0 00-.115 1.571 2.008 2.008 0 001.049 1.171 1.996 1.996 0 001.566.05 1.993 1.993 0 001.12-1.102c9.562-20.802 9.126-41.11 3.207-72.995l-1.578-8.171zm-.339-6.525c0-1.71-1.335-3.052-3.037-3.052a3.02 3.02 0 00-3.045 3.052 3.01 3.01 0 001.551 2.655c-.067-.32-.13-.633-.194-.946l-.001-.002c-.086-.425-.173-.85-.266-1.293a2.023 2.023 0 01.376-1.674 2 2 0 011.526-.77c.47-.012.929.144 1.295.44.367.295.618.711.71 1.175.093.441.179.867.266 1.293.065.321.13.643.198.971a3.053 3.053 0 00.621-1.849z"/>
    </g>
  </g>
</svg>
