<svg xmlns="http://www.w3.org/2000/svg" width="418" height="506" fill="none" viewBox="0 0 418 506">
  <g class="hoodie-long">
    <g fill="#CCC" class="layer bottom">
      <path d="M99.852 449.994c29.918 12.107 68.176 11.958 108.767 11.775.24.008.48-.007.717-.043.234.036.47.05.707.043 40.59.183 78.85.331 108.767-11.775-.743 12.376-1.054 27.613-1.137 31.717l-.009.439c-4.684.851-55.373 9.933-107.951 8.738a3.982 3.982 0 00-.289-.007 4.113 4.113 0 00-.471.007c-52.578 1.196-103.263-7.887-107.947-8.738l-.007-.33c-.08-3.935-.395-19.337-1.147-31.826z"/>
      <path d="M99.852 449.994c29.918 12.107 68.176 11.958 108.767 11.775.24.008.48-.007.717-.043.234.036.47.05.707.043 40.59.183 78.85.331 108.767-11.775-.743 12.376-1.054 27.613-1.137 31.717l-.009.439c-4.684.851-55.373 9.933-107.951 8.738a3.982 3.982 0 00-.289-.007 4.113 4.113 0 00-.471.007c-52.578 1.196-103.263-7.887-107.947-8.738l-.007-.33c-.08-3.935-.395-19.337-1.147-31.826z"/>
    </g>
    <g fill="#CCC" class="layer cuffs">
      <path d="M411.599 477.543c.208 4.935.642 15.613.781 24.783-11.569 3.592-31.055 4.62-43.125 2.096.149-1.994.307-3.549.43-7.604.092-3.012.12-6.216-.023-9.131-.118-2.422-.276-4.551-.828-6.547 13.146-.324 30.832-2.212 42.765-3.597zM7.073 477.545c11.935 1.385 29.62 3.271 42.763 3.595-.552 1.996-.71 4.125-.828 6.547-.142 2.915-.12 6.119-.03 9.131.123 4.055.288 5.61.436 7.604-12.067 2.524-31.554 1.494-43.125-2.096.14-9.169.575-19.845.784-24.781z"/>
    </g>
    <path fill="#CCC" d="M247.707 1.732C235.835.234 221.634.42 209.373 0c-12.277.423-26.512.231-38.408 1.732-11.927 1.505-20.792 4.88-23.748 10.355l-7.574 14.033a3.187 3.187 0 01-.069.126c7.132 11.283 17.305 12.521 17.305 12.521a1.995 1.995 0 011.727 1.461 2.01 2.01 0 01-.207 1.547 1.991 1.991 0 01-1.255.927 2.003 2.003 0 01-.796.028s-12.007-1.744-20.049-14.21a22.064 22.064 0 00-5.344 3.64c-2.5 2.291-4.405 5.89-5.287 10.498 5.093-.377 9.954.304 14.057 2.191 5.252 2.417 12.384 5.968 23.377 8.982l3.879.996c6.941 1.675 15.251 3.108 25.406 3.952-14.72-9.476-24.491-19.383-29.721-27.918-3.429-5.597-5.187-10.607-4.287-15.325.45-2.358 1.834-4.67 3.934-6.025 2.099-1.354 4.617-1.747 7.213-1.54a4.003 4.003 0 013.809 4.313 3.99 3.99 0 01-2.855 3.52 4.001 4.001 0 01-1.589.137c-1.382-.11-2.031.159-2.244.297-.214.138-.292.154-.414.797-.245 1.284.406 4.997 3.255 9.648.909 1.483 2.038 3.069 3.348 4.719 6.563-.381 22.572-1.227 36.275-1.235a2.01 2.01 0 01.225-.001c.064-.003.128-.002.191.002 13.704.007 29.727.852 36.301 1.234 1.31-1.65 2.439-3.238 3.348-4.72 2.849-4.652 3.499-8.363 3.254-9.647-.123-.643-.199-.661-.412-.8-.214-.137-.863-.403-2.245-.294a4 4 0 11-.627-7.973c2.596-.206 5.112.19 7.211 1.543 2.1 1.355 3.486 3.665 3.936 6.024.9 4.718-.868 9.73-4.297 15.326-5.23 8.536-14.993 18.442-29.713 27.918 10.156-.844 18.467-2.276 25.408-3.951l3.877-.998c10.989-3.014 18.12-6.565 23.371-8.98 4.104-1.889 8.968-2.571 14.063-2.194-.882-4.608-2.785-8.204-5.285-10.496a22.061 22.061 0 00-5.346-3.639c-8.043 12.465-20.057 14.21-20.057 14.21a1.999 1.999 0 11-.523-3.964s10.172-1.237 17.303-12.525a3.104 3.104 0 01-.075-.12l-7.572-14.034c-2.956-5.475-11.813-8.85-23.74-10.356z" class="layer hood" />
    <path fill="#CCC" d="M290.93 49.894c1.717-.002 3.493.296 5.392.96 9.221 4.087 18.722 8.43 26.332 12.19 3.938 1.947 7.379 3.739 9.959 5.227 2.496 1.44 4.244 2.805 4.397 2.936.108.121.224.236.347.343a4 4 0 00.762.576c11.557 7.954 23.779 26.061 34.607 50.809 10.921 24.958 20.623 56.573 28.205 91.174 14.933 68.142 21.471 147.775 13.797 211.519 0 13.366-2.663 30.366-4.163 45.366-5.771.579-36.033 3.573-42 4-1.5-16-3.546-29.5-3.546-45.521-1.862-39.459-2.078-84.713-5.574-124.509-3.579-40.745-10.076-75.681-27.56-92.973a4.001 4.001 0 00-2.477-1.531 3.998 3.998 0 00-4.715 4.639c-.245 49.729-2.413 122.954-2.01 180.624 0 19.771 0 13.271-4.118 45.271-6.5 12.5-104.079 17.806-109.5 15-107.5-2-108.752-12.009-109-12-4.086-35-4.26-23.5-4.086-48.271.405-57.915-1.778-131.551-2.008-181.29a3.997 3.997 0 00-2.517-3.753 4 4 0 00-4.701 1.339c-17.464 17.301-23.95 52.221-27.528 92.945-3.495 39.796-3.718 85.05-5.58 124.509-.52 11.021-1.08 22.021-4.58 44.021-5.858-.392-28.408-3.013-38.455-4.12l-3.545-.38c-1.5-18.5-4-24.634-4-43-7.674-63.743-.258-143.743 14.674-211.885 7.582-34.601 17.286-66.216 28.207-91.174 10.92-24.958 23.249-43.177 34.892-51.023l.012-.008.027-.019c.273-.184.521-.401.74-.646.097-.088 1.899-1.504 4.434-2.967 2.577-1.487 6.01-3.275 9.943-5.219 7.628-3.77 17.158-8.12 26.403-12.218 5.121-1.773 9.344-.848 13.984 1.287 5.035 2.316 12.758 6.41 25.141 9.85l3.875 1.017c10.958 2.692 25.193 4.778 43.908 4.892l.023-.002.03.002c18.718-.114 32.957-2.201 43.916-4.894l3.875-1.018c12.378-3.438 20.1-7.531 25.134-9.847 2.939-1.352 5.709-2.223 8.647-2.228z" class="layer main"/>
    <path fill="#AAA" d="M151.283 310.994h116.096c.81 17.834 5.974 29.448 11.242 36.453 4.488 5.968 8.344 8.235 9.855 9.049l-3.521 51.828c-2.549.39-44.79 6.809-75.56 5.84h-.032a1.473 1.473 0 00-.094 0c-30.765.969-72.994-5.449-75.554-5.84l-3.522-51.828c1.516-.817 5.364-3.087 9.848-9.049 5.268-7.005 10.433-18.619 11.242-36.453z" class="layer pocket"/>
    <g fill="#AAA" class="layer laces" clip-rule="evenodd">
      <path d="M167.269 54.59c.031-.158.067-.329.099-.488 3.586-.308 6.437-3.36 6.437-7.038 0-3.881-3.173-7.07-7.034-7.07-3.861 0-7.031 3.189-7.031 7.07 0 2.679 1.511 5.027 3.717 6.225l-.062.302-1.578 8.17c-5.92 31.885-6.361 52.193 3.201 72.994a2.002 2.002 0 001.902 1.197 2 2 0 001.922-2.119 2.007 2.007 0 00-.198-.768c-9.1-19.797-8.77-38.959-2.957-70.282l1.582-8.193zm2.541-7.526c0-1.71-1.336-3.052-3.039-3.052-1.702 0-3.036 1.341-3.036 3.052 0 .704.235 1.338.62 1.85.158-.764.302-1.49.464-2.265.088-.455.33-.865.685-1.161a1.993 1.993 0 012.132-.268 1.997 1.997 0 011.088 1.362c.068.295.069.601.002.896-.161.768-.302 1.484-.459 2.24a3.01 3.01 0 001.543-2.654zM255.738 53.589c-.02-.098-.043-.202-.062-.3 2.206-1.198 3.717-3.546 3.717-6.225 0-3.88-3.17-7.07-7.031-7.07-3.861 0-7.034 3.19-7.034 7.07 0 3.68 2.853 6.73 6.439 7.039.032.158.068.33.099.488l1.58 8.19c5.814 31.324 6.144 50.486-2.957 70.284a2.028 2.028 0 00-.115 1.571c.087.256.225.492.406.693a1.987 1.987 0 002.209.528 2.007 2.007 0 001.121-1.102c9.561-20.802 9.125-41.11 3.206-72.995l-1.578-8.171zm-.339-6.525c0-1.71-1.335-3.052-3.037-3.052a3.02 3.02 0 00-3.045 3.052c0 1.16.624 2.137 1.551 2.655l-.194-.946v-.002c-.087-.425-.174-.85-.267-1.293a2.023 2.023 0 01.376-1.674 2 2 0 011.526-.77c.47-.012.929.144 1.295.44.367.295.619.711.71 1.175.093.441.179.867.266 1.293l.199.971c.384-.511.62-1.145.62-1.849z"/>
    </g>
  </g>
</svg>
