<svg xmlns="http://www.w3.org/2000/svg" width="434" height="479" fill="none" viewBox="0 0 434 479">
  <g class="hoodie-back">
    <path fill="#CCC" d="M255.142 9.738c-11.872-1.498-26.074-1.312-38.334-1.732-12.277.423-26.513.231-38.408 1.732-11.928 1.505-20.792 4.88-23.748 10.355l-7.574 14.033-3.344 2.4a22.058 22.058 0 00-5.344 3.64c-2.5 2.291-4.406 5.89-5.287 10.498 0 0 15.049 54.836 23.897 61.836 8.848 7 39.5 24.5 59.5 24s53.618-12.5 62.5-24c8.882-11.5 21.437-61.838 21.437-61.838-.882-4.608-2.785-8.204-5.285-10.496a22.08 22.08 0 00-5.346-3.639l-3.278-2.279-.074-.12-7.572-14.034c-2.956-5.475-11.813-8.85-23.74-10.356z" class="layer hood"/>
    <path fill="#CCC" d="M330.089 71.05c-7.61-3.76-17.111-8.103-26.332-12.19-5.034 2.315-1.257 7.881-7.757 21.272L282.5 115.5c-12 9.5-46.282 25.886-65 26-18.715-.114-55-20-64-26l-6-7c-3-8.5-6.5-21.944-10-28.944s-4.879-21.2-10-19.428c-9.245 4.097-16.443 7.161-24.071 10.931-3.933 1.945-7.366 3.732-9.943 5.219-2.535 1.463-4.337 2.879-4.434 2.967-.219.245-.468.462-.74.646l-.027.02-.012.007c-11.644 7.846-23.972 26.065-34.892 51.023-10.92 24.958-20.625 56.573-28.207 91.174C10.24 290.257 3.695 369.89 11.369 433.634c12.654 1.489 36.493 3.951 49.71 3.845 1.863-39.459 2.085-84.713 5.58-124.509 3.578-40.724 10.065-75.644 27.528-92.945a4.003 4.003 0 014.701-1.339 4.004 4.004 0 012.518 3.753c.229 49.739 2.413 123.375 2.008 181.29 28.292 14.247 68.497 14.787 112.603 14.588a4.09 4.09 0 01.742.041c.25-.037.503-.051.756-.041 44.106.199 84.311-.341 112.603-14.588-.403-57.67 1.765-130.895 2.01-180.624a3.997 3.997 0 011.13-3.567 4.008 4.008 0 013.585-1.072 3.999 3.999 0 012.476 1.531c17.485 17.292 23.982 52.228 27.561 92.973 3.495 39.796 3.712 85.05 5.574 124.509 13.215.107 37.051-2.356 49.709-3.845 7.674-63.744 1.135-143.377-13.797-211.519-7.582-34.601-17.284-66.216-28.205-91.174-10.828-24.748-23.05-42.855-34.607-50.809a4 4 0 01-.762-.576 4 4 0 01-.348-.343c-.152-.131-1.901-1.496-4.396-2.936-2.58-1.488-6.021-3.28-9.959-5.226z" class="layer main"/>
    <g fill="#CCC" class="layer bottom">
      <path d="M107.287 414.536c29.917 12.107 68.176 11.958 108.767 11.775.24.008.48-.007.717-.043.234.036.47.05.707.043 40.59.183 78.85.332 108.767-11.775-.744 12.377-1.054 27.613-1.137 31.717l-.009.439c-4.684.851-55.374 9.933-107.951 8.739a3.999 3.999 0 00-.289-.008 3.897 3.897 0 00-.471.008c-52.579 1.195-103.263-7.888-107.947-8.739l-.007-.33c-.08-3.935-.396-19.337-1.147-31.826z"/>
      <path d="M107.287 414.536c29.917 12.107 68.176 11.958 108.767 11.775.24.008.48-.007.717-.043.234.036.47.05.707.043 40.59.183 78.85.332 108.767-11.775-.744 12.377-1.054 27.613-1.137 31.717l-.009.439c-4.684.851-55.374 9.933-107.951 8.739a3.999 3.999 0 00-.289-.008 3.897 3.897 0 00-.471.008c-52.579 1.195-103.263-7.888-107.947-8.739l-.007-.33c-.08-3.935-.396-19.337-1.147-31.826z"/>
    </g>
    <g fill="#CCC" class="layer cuffs">
      <path d="M419.034 442.085c.208 4.935.642 15.613.781 24.783-11.569 3.592-31.055 4.621-43.125 2.096.148-1.994.307-3.549.43-7.604.091-3.012.119-6.216-.023-9.131-.118-2.422-.276-4.551-.828-6.546 13.145-.325 30.831-2.213 42.765-3.598zM14.508 442.087c11.934 1.385 29.62 3.271 42.763 3.596-.552 1.995-.71 4.124-.828 6.546-.142 2.915-.12 6.119-.03 9.131.123 4.056.288 5.61.436 7.604-12.067 2.524-31.554 1.494-43.125-2.096.14-9.169.575-19.845.784-24.781z"/>
    </g>
  </g>
</svg>
