<svg xmlns="http://www.w3.org/2000/svg" viewBox="0 0 512.002 512.002"><path d="M509.502 104.908L407.097 2.502a8.524 8.524 0 00-12.067 0L2.502 395.03a8.524 8.524 0 000 12.067l102.405 102.405a8.513 8.513 0 006.033 2.5 8.526 8.526 0 006.033-2.5L509.5 116.975a8.513 8.513 0 002.5-6.033 8.517 8.517 0 00-2.498-6.034zM110.941 491.402l-90.338-90.338 380.46-380.461 90.338 90.338-380.46 380.461z"/><path d="M409.631 76.797c-14.115 0-25.601 11.486-25.601 25.601 0 14.115 11.486 25.601 25.601 25.601 14.115 0 25.601-11.486 25.601-25.601 0-14.114-11.486-25.601-25.601-25.601zm0 34.135c-4.711 0-8.534-3.832-8.534-8.534 0-4.702 3.823-8.534 8.534-8.534s8.534 3.832 8.534 8.534c0 4.703-3.823 8.534-8.534 8.534zM318.253 91.37l12.068-12.068 25.603 25.602-12.068 12.069zM292.648 116.973l12.068-12.068 34.135 34.135-12.068 12.069zM267.051 142.565l12.068-12.068 25.603 25.603-12.068 12.068zM241.445 168.16l12.068-12.067 34.135 34.135-12.068 12.068zM215.848 193.761l12.068-12.068 25.603 25.603-12.068 12.068zM190.243 219.356l12.068-12.068 34.135 34.135-12.068 12.068zM164.643 244.949l12.066-12.07 25.6 25.593-12.066 12.07zM139.04 270.568l12.068-12.068 34.136 34.135-12.069 12.068zM113.443 296.166l12.068-12.068 25.603 25.603-12.068 12.068zM87.838 321.77l12.068-12.068 34.136 34.136-12.068 12.068zM62.26 347.379l12.067-12.068 25.603 25.603-12.068 12.068zM36.634 372.976l12.068-12.068 34.136 34.135L70.77 407.11z"/></svg>